HIERARCHY
ROOT hip
{
  OFFSET 0 0 0
  CHANNELS 6 Xposition Yposition Zposition Zrotation Yrotation Xrotation
  JOINT abdomen
  {
    OFFSET 0 20.6881 -0.73152
    CHANNELS 3 Zrotation Xrotation Yrotation
    JOINT chest
    {
      OFFSET 0 11.7043 -0.48768
      CHANNELS 3 Zrotation Xrotation Yrotation
      JOINT neck
      {
        OFFSET 0 22.1894 -2.19456
        CHANNELS 3 Zrotation Xrotation Yrotation
        JOINT head
        {
          OFFSET -0.24384 7.07133 1.2192
          CHANNELS 3 Zrotation Xrotation Yrotation
          JOINT leftEye
          {
            OFFSET 4.14528 8.04674 8.04672
            CHANNELS 3 Zrotation Xrotation Yrotation
            End Site
            {
              OFFSET 1 0 0
            }
          }
          JOINT rightEye
          {
            OFFSET -3.6576 8.04674 8.04672
            CHANNELS 3 Zrotation Xrotation Yrotation
            End Site
            {
              OFFSET 1 0 0
            }
          }
        }
      }
      JOINT rCollar
      {
        OFFSET -2.68224 19.2634 -4.8768
        CHANNELS 3 Zrotation Xrotation Yrotation
        JOINT rShldr
        {
          OFFSET -8.77824 -1.95073 1.46304
          CHANNELS 3 Zrotation Xrotation Yrotation
          JOINT rForeArm
          {
            OFFSET -28.1742 -1.7115 0.48768
            CHANNELS 3 Zrotation Xrotation Yrotation
            JOINT rHand
            {
              OFFSET -22.5879 0.773209 7.07136
              CHANNELS 3 Zrotation Xrotation Yrotation
              JOINT rThumb1
              {
                OFFSET -1.2192 -0.487915 3.41376
                CHANNELS 3 Zrotation Xrotation Yrotation
                JOINT rThumb2
                {
                  OFFSET -3.37035 -0.52449 3.41376
                  CHANNELS 3 Zrotation Xrotation Yrotation
                  End Site
                  {
                    OFFSET -1.78271 -1.18214 1.43049
                  }
                }
              }
              JOINT rIndex1
              {
                OFFSET -7.75947 0.938293 5.60832
                CHANNELS 3 Zrotation Xrotation Yrotation
                JOINT rIndex2
                {
                  OFFSET -2.54057 -0.884171 1.56538
                  CHANNELS 3 Zrotation Xrotation Yrotation
                  End Site
                  {
                    OFFSET -1.62519 -0.234802 1.16502
                  }
                }
              }
              JOINT rMid1
              {
                OFFSET -8.24714 1.18213 3.41376
                CHANNELS 3 Zrotation Xrotation Yrotation
                JOINT rMid2
                {
                  OFFSET -3.10165 -0.590103 1.0647
                  CHANNELS 3 Zrotation Xrotation Yrotation
                  End Site
                  {
                    OFFSET -2.48547 -0.328903 0.83742
                  }
                }
              }
              JOINT rRing1
              {
                OFFSET -8.82822 0.546677 1.51678
                CHANNELS 3 Zrotation Xrotation Yrotation
                JOINT rRing2
                {
                  OFFSET -2.60934 -0.819778 -0.0198488
                  CHANNELS 3 Zrotation Xrotation Yrotation
                  End Site
                  {
                    OFFSET -2.33842 -0.294052 0.168128
                  }
                }
              }
              JOINT rPinky1
              {
                OFFSET -8.27202 -0.0477905 -0.4584
                CHANNELS 3 Zrotation Xrotation Yrotation
                JOINT rPinky2
                {
                  OFFSET -1.82734 -0.647385 -0.700984
                  CHANNELS 3 Zrotation Xrotation Yrotation
                  End Site
                  {
                    OFFSET -1.69225 -0.51767 -0.607171
                  }
                }
              }
            }
          }
        }
      }
      JOINT lCollar
      {
        OFFSET 2.68224 19.2634 -4.8768
        CHANNELS 3 Zrotation Xrotation Yrotation
        JOINT lShldr
        {
          OFFSET 8.77824 -1.95073 1.46304
          CHANNELS 3 Zrotation Xrotation Yrotation
          JOINT lForeArm
          {
            OFFSET 28.1742 -1.7115 0.48768
            CHANNELS 3 Zrotation Xrotation Yrotation
            JOINT lHand
            {
              OFFSET 22.5879 0.773209 7.07136
              CHANNELS 3 Zrotation Xrotation Yrotation
              JOINT lThumb1
              {
                OFFSET 1.2192 -0.487915 3.41376
                CHANNELS 3 Zrotation Xrotation Yrotation
                JOINT lThumb2
                {
                  OFFSET 3.37035 -0.52449 3.41376
                  CHANNELS 3 Zrotation Xrotation Yrotation
                  End Site
                  {
                    OFFSET 1.78271 -1.18214 1.43049
                  }
                }
              }
              JOINT lIndex1
              {
                OFFSET 7.75947 0.938293 5.60832
                CHANNELS 3 Zrotation Xrotation Yrotation
                JOINT lIndex2
                {
                  OFFSET 2.54057 -0.884171 1.56538
                  CHANNELS 3 Zrotation Xrotation Yrotation
                  End Site
                  {
                    OFFSET 1.62519 -0.234802 1.16502
                  }
                }
              }
              JOINT lMid1
              {
                OFFSET 8.24714 1.18213 3.41376
                CHANNELS 3 Zrotation Xrotation Yrotation
                JOINT lMid2
                {
                  OFFSET 3.10165 -0.590103 1.0647
                  CHANNELS 3 Zrotation Xrotation Yrotation
                  End Site
                  {
                    OFFSET 2.48547 -0.328903 0.83742
                  }
                }
              }
              JOINT lRing1
              {
                OFFSET 8.82822 0.546677 1.51678
                CHANNELS 3 Zrotation Xrotation Yrotation
                JOINT lRing2
                {
                  OFFSET 2.60934 -0.819778 -0.0198488
                  CHANNELS 3 Zrotation Xrotation Yrotation
                  End Site
                  {
                    OFFSET 2.33842 -0.294052 0.168128
                  }
                }
              }
              JOINT lPinky1
              {
                OFFSET 8.27202 -0.0477905 -0.4584
                CHANNELS 3 Zrotation Xrotation Yrotation
                JOINT lPinky2
                {
                  OFFSET 1.82734 -0.647385 -0.700984
                  CHANNELS 3 Zrotation Xrotation Yrotation
                  End Site
                  {
                    OFFSET 1.69225 -0.51767 -0.607171
                  }
                }
              }
            }
          }
        }
      }
    }
  }
  JOINT rButtock
  {
    OFFSET -8.77824 4.35084 1.2192
    CHANNELS 3 Zrotation Xrotation Yrotation
    JOINT rThigh
    {
      OFFSET 0 -1.70687 -2.19456
      CHANNELS 3 Zrotation Xrotation Yrotation
      JOINT rShin
      {
        OFFSET 0 -36.8199 0.73152
        CHANNELS 3 Zrotation Xrotation Yrotation
        JOINT rFoot
        {
          OFFSET 0.73152 -45.1104 -5.12064
          CHANNELS 3 Zrotation Xrotation Yrotation
          End Site
          {
            OFFSET -1.1221 -3.69964 12.103
          }
        }
      }
    }
  }
  JOINT lButtock
  {
    OFFSET 8.77824 4.35084 1.2192
    CHANNELS 3 Zrotation Xrotation Yrotation
    JOINT lThigh
    {
      OFFSET 0 -1.70687 -2.19456
      CHANNELS 3 Zrotation Xrotation Yrotation
      JOINT lShin
      {
        OFFSET 0 -36.8199 0.73152
        CHANNELS 3 Zrotation Xrotation Yrotation
        JOINT lFoot
        {
          OFFSET -0.73152 -45.1104 -5.12064
          CHANNELS 3 Zrotation Xrotation Yrotation
          End Site
          {
            OFFSET 1.1221 -3.69964 12.103
          }
        }
      }
    }
  }
}
MOTION
Frames:	9
Frame Time:	0.00833333
232.255 84.7658 34.8984 0.0 0.0 0.0 -0.385196 -0.00168813 -0.0109958 -0.106234 -0.00256712 -0.0184049 -6.31451e-15 0.0 9.31803e-17 -1.89373e-14 3.18055e-15 2.45375e-16 -0.0 0.0 0.0 -0.0 0.0 0.0 -3.13231e-15 -3.68839e-18 1.98785e-16 -6.48415e-14 -5.90142e-16 1.59028e-15 -1.1376e-12 3.35549e-13 4.77083e-14 -1.30244e-11 -3.61838e-13 1.39944e-13 -3.07257e-11 -5.0594e-14 4.23014e-13 -5.30672e-11 -8.90555e-14 7.33913e-13 -3.07222e-11 -4.96962e-14 4.19833e-13 7.73091 5.47488 0.417314 -3.07258e-11 -5.06901e-14 4.29375e-13 2.90554 0.965183 0.102902 -3.07179e-11 -5.06901e-14 4.27785e-13 10.2786 0.731801 0.0259123 -3.07315e-11 -4.85035e-14 4.35736e-13 2.22167 -0.733487 -0.20892 -3.22901e-15 -4.07664e-18 -9.93923e-17 -6.8382e-14 -4.96962e-16 -1.98785e-16 -1.14112e-12 -3.43301e-13 2.22639e-14 -1.3028e-11 3.25386e-13 1.78111e-13 -3.07314e-11 -3.27322e-14 4.29375e-13 -5.30556e-11 -4.77083e-14 7.43455e-13 -3.07365e-11 -3.06128e-14 4.38917e-13 -7.73091 5.47488 -0.417314 -3.07313e-11 -3.32964e-14 4.26194e-13 -2.90554 0.965183 -0.102902 -3.07415e-11 -3.22031e-14 4.26989e-13 -10.2786 0.731801 -0.0259123 -3.07232e-11 -3.02153e-14 4.23014e-13 -2.22167 -0.733487 0.20892 -2.03217e-16 0.0 -3.88251e-19 0.221648 -2.58356 -0.0280809 -0.00748957 -0.87263 -0.0651399 -0.513109 3.45577 0.129347 2.03217e-16 0.0 3.88251e-19 -0.807777 -4.07084 0.0653913 0.00325577 1.82139 0.0244321 0.517713 2.24911 -0.10518
228.701 83.2859 27.7021 -121.678 -83.7493 131.015 1.99403 -1.64729 -0.87235 0.307802 0.00916571 -0.325917 -3.93833 1.85447 -2.91758 3.98374 -3.51257 -4.76555 -0.0 0.0 0.0 -0.0 0.0 0.0 -3.3067e-15 -1.72104e-14 1.02646e-14 20.7283 3.17823 2.47631 -3.55811 -1.50429 5.67346 0.0558353 -5.24694 -0.726297 -5.63667e-10 2.25051e-10 -5.73907e-10 -9.67668e-10 3.93095e-10 -9.98843e-10 -5.63663e-10 2.25051e-10 -5.7391e-10 7.73091 5.47488 0.417314 -5.63668e-10 2.25051e-10 -5.73901e-10 2.90554 0.965183 0.102902 -5.6366e-10 2.25051e-10 -5.73903e-10 10.2786 0.731801 0.0259123 -5.63672e-10 2.25051e-10 -5.73894e-10 2.22167 -0.733487 -0.20892 -3.45103e-15 -1.72102e-14 9.93341e-15 -22.8875 -0.352947 0.905938 4.82354 -2.32694 -7.38138 -0.0143154 -2.65512 0.371708 3.70125e-10 -5.51335e-12 4.86125e-10 6.37969e-10 -7.29061e-12 8.42966e-10 3.7012e-10 -5.51216e-12 4.86136e-10 -7.73091 5.47488 -0.417314 3.70125e-10 -5.51454e-12 4.86123e-10 -2.90554 0.965183 -0.102902 3.70115e-10 -5.51323e-12 4.86125e-10 -10.2786 0.731801 -0.0259123 3.70131e-10 -5.5113e-12 4.86121e-10 -2.22167 -0.733487 0.20892 -2.03217e-16 0.0 -3.88251e-19 2.08256 -5.8322 0.34848 -0.00769745 3.68036 0.0130027 -0.693838 1.26863 -3.22694 2.03217e-16 0.0 3.88251e-19 1.03483 -7.17521 -0.279851 -0.00515983 6.27898 -0.0490503 0.60867 -0.367499 1.43703
228.697 83.2914 27.6944 -121.706 -83.7122 131.021 4.45485 -3.37974 -1.7871 0.751606 0.0126932 -0.651394 -7.89843 3.81964 -6.01378 7.55047 -7.16017 -9.86943 -0.0 0.0 0.0 -0.0 0.0 0.0 -6.65789e-15 -2.92737e-14 2.54506e-14 42.3369 6.51996 5.1148 -6.99786 -3.0457 11.6844 -0.032243 -10.8049 -1.51659 -1.10918e-09 4.19274e-10 -1.15461e-09 -1.90403e-09 7.32838e-10 -2.00963e-09 -1.10917e-09 4.19274e-10 -1.15461e-09 7.73091 5.47488 0.417314 -1.10918e-09 4.19274e-10 -1.1546e-09 2.90554 0.965183 0.102902 -1.10917e-09 4.19275e-10 -1.1546e-09 10.2786 0.731801 0.0259123 -1.10918e-09 4.19273e-10 -1.15459e-09 2.22167 -0.733487 -0.20892 -6.85682e-15 -2.92726e-14 2.5081e-14 -47.0749 -0.719521 1.87294 9.27916 -4.66018 -15.2273 0.00815012 -5.45498 0.766392 7.92214e-10 5.04114e-11 1.0076e-09 1.3654e-09 9.19965e-11 1.74729e-09 7.92208e-10 5.04116e-11 1.00761e-09 -7.73091 5.47488 -0.417314 7.92213e-10 5.04096e-11 1.0076e-09 -2.90554 0.965183 -0.102902 7.92204e-10 5.04111e-11 1.0076e-09 -10.2786 0.731801 -0.0259123 7.92216e-10 5.0413e-11 1.0076e-09 -2.22167 -0.733487 0.20892 -2.03217e-16 0.0 -3.88251e-19 4.09633 -9.26945 0.752341 -0.0215318 8.49821 0.0966808 -1.16314 -1.03227 -6.77604 2.03217e-16 0.0 3.88251e-19 2.94158 -10.4601 -0.648056 -0.0014193 10.9962 -0.128536 0.857834 -3.12986 3.0682
228.694 83.2954 27.704 -121.853 -83.7546 131.152 6.60364 -4.934 -2.60363 1.13625 0.0326274 -0.940941 -11.2486 5.50561 -8.78902 10.1946 -10.2443 -14.5059 -0.0 0.0 0.0 -0.0 0.0 0.0 -3.6555e-15 -5.16239e-14 3.03962e-14 61.3537 9.46299 7.52042 -9.79305 -4.33618 17.0648 -0.24467 -15.7305 -2.25423 -1.62955e-09 6.75253e-10 -1.72257e-09 -2.79687e-09 1.17946e-09 -2.998e-09 -1.62954e-09 6.75252e-10 -1.72257e-09 7.73091 5.47488 0.417314 -1.62955e-09 6.75253e-10 -1.72256e-09 2.90554 0.965183 0.102902 -1.62954e-09 6.75254e-10 -1.72256e-09 10.2786 0.731801 0.0259123 -1.62955e-09 6.75251e-10 -1.72255e-09 2.22167 -0.733487 -0.20892 -3.89508e-15 -5.16225e-14 2.9999e-14 -68.6291 -1.05778 2.71823 12.712 -6.5184 -22.2774 0.0612549 -7.96402 1.12478 1.17184e-09 -1.64746e-11 1.45752e-09 2.02002e-09 -2.17764e-11 2.52741e-09 1.17183e-09 -1.64753e-11 1.45753e-09 -7.73091 5.47488 -0.417314 1.17184e-09 -1.6477e-11 1.45752e-09 -2.90554 0.965183 -0.102902 1.17183e-09 -1.64753e-11 1.45752e-09 -10.2786 0.731801 -0.0259123 1.17184e-09 -1.64735e-11 1.45752e-09 -2.22167 -0.733487 0.20892 -2.03217e-16 0.0 -3.88251e-19 5.93519 -12.3275 1.12201 -0.0459905 12.7863 0.173495 -1.82083 -3.05309 -9.95094 2.03217e-16 0.0 3.88251e-19 4.60496 -13.3823 -0.990322 0.0133502 15.1941 -0.202175 1.21411 -5.58359 4.54279
228.692 83.2999 27.6803 -121.824 -83.7437 131.113 8.07721 -6.04708 -3.16656 1.37319 0.0935752 -1.14066 -13.4844 6.55027 -10.7254 11.7899 -12.2043 -17.7696 -0.0 0.0 0.0 -0.0 0.0 0.0 1.52308e-14 -9.96913e-14 9.74045e-15 74.4784 11.477 9.25687 -11.5938 -5.16781 20.8263 -0.468629 -19.0852 -2.78716 -2.08708e-09 1.08562e-09 -2.25869e-09 -3.58093e-09 1.89329e-09 -3.93034e-09 -2.08708e-09 1.08562e-09 -2.25869e-09 7.73091 5.47488 0.417314 -2.08708e-09 1.08562e-09 -2.25868e-09 2.90554 0.965183 0.102902 -2.08708e-09 1.08562e-09 -2.25868e-09 10.2786 0.731801 0.0259123 -2.08709e-09 1.08562e-09 -2.25867e-09 2.22167 -0.733487 -0.20892 1.49854e-14 -9.96911e-14 9.34288e-15 -83.6234 -1.32627 3.25886 14.8156 -7.63182 -27.2101 0.117963 -9.74726 1.38339 1.4453e-09 -3.90388e-10 1.72853e-09 2.49259e-09 -6.682e-10 2.99699e-09 1.4453e-09 -3.90389e-10 1.72854e-09 -7.73091 5.47488 -0.417314 1.4453e-09 -3.9039e-10 1.72853e-09 -2.90554 0.965183 -0.102902 1.44529e-09 -3.90389e-10 1.72853e-09 -10.2786 0.731801 -0.0259123 1.4453e-09 -3.90387e-10 1.72853e-09 -2.22167 -0.733487 0.20892 -2.03217e-16 0.0 -3.88251e-19 7.24348 -14.4394 1.38805 -0.0699332 15.7501 0.228675 -2.40979 -4.43311 -12.1677 2.03217e-16 0.0 3.88251e-19 5.74071 -15.3992 -1.25078 0.0302757 18.0938 -0.255454 1.5404 -7.2832 5.60149
228.674 83.3036 27.6636 -121.847 -83.7471 131.13 8.65322 -6.54878 -3.37057 1.39707 0.220747 -1.21518 -14.3412 6.70711 -11.4609 12.4829 -12.7586 -18.9693 -0.0 0.0 0.0 -0.0 0.0 0.0 6.52549e-14 -1.97961e-13 -6.11104e-14 79.6261 12.229 10.0009 -12.2618 -5.47171 22.2913 -0.565356 -20.2447 -2.97938 -2.48493e-09 1.88121e-09 -2.7942e-09 -4.26052e-09 3.27458e-09 -4.86078e-09 -2.48493e-09 1.88121e-09 -2.7942e-09 7.73091 5.47488 0.417314 -2.48494e-09 1.88122e-09 -2.79419e-09 2.90554 0.965183 0.102902 -2.48493e-09 1.88121e-09 -2.79419e-09 10.2786 0.731801 0.0259123 -2.48494e-09 1.88121e-09 -2.79418e-09 2.22167 -0.733487 -0.20892 6.50663e-14 -1.97964e-13 -6.1461e-14 -89.4384 -1.49986 3.36755 15.5605 -8.00386 -29.1039 0.146707 -10.5201 1.49663 1.52712e-09 -1.47098e-09 1.65809e-09 2.63704e-09 -2.54038e-09 2.87379e-09 1.52711e-09 -1.47098e-09 1.6581e-09 -7.73091 5.47488 -0.417314 1.52712e-09 -1.47098e-09 1.65809e-09 -2.90554 0.965183 -0.102902 1.52711e-09 -1.47098e-09 1.65809e-09 -10.2786 0.731801 -0.0259123 1.52712e-09 -1.47097e-09 1.65809e-09 -2.22167 -0.733487 0.20892 -2.03217e-16 0.0 -3.88251e-19 7.76344 -15.2261 1.49349 -0.0805073 16.8593 0.249956 -2.66444 -4.96416 -13.0167 2.03217e-16 0.0 3.88251e-19 6.17397 -16.1507 -1.38441 0.0382395 19.1799 -0.276208 1.69107 -7.94013 6.05918
228.66 83.3064 27.6483 -121.626 -83.7483 130.92 8.59934 -6.61449 -3.3164 1.26878 0.394809 -1.20025 -14.2478 6.24111 -11.3337 12.6467 -12.3635 -18.6632 -0.0 0.0 0.0 -0.0 0.0 0.0 1.37096e-13 -3.31413e-13 -1.67131e-13 79.1394 12.0945 10.0183 -12.1787 -5.43187 22.1094 -0.538135 -19.8384 -2.91328 -2.83881e-09 2.94391e-09 -3.32717e-09 -4.86323e-09 5.11864e-09 -5.7862e-09 -2.83881e-09 2.94392e-09 -3.32719e-09 7.73091 5.47488 0.417314 -2.83881e-09 2.94392e-09 -3.32717e-09 2.90554 0.965183 0.102902 -2.8388e-09 2.94391e-09 -3.32717e-09 10.2786 0.731801 0.0259123 -2.83881e-09 2.94392e-09 -3.32716e-09 2.22167 -0.733487 -0.20892 1.37009e-13 -3.31422e-13 -1.67402e-13 -88.7003 -1.60577 3.16788 15.4408 -7.93096 -28.8108 0.147187 -10.5714 1.50398 1.47409e-09 -3.04315e-09 1.34809e-09 2.5506e-09 -5.26523e-09 2.33471e-09 1.47409e-09 -3.04315e-09 1.3481e-09 -7.73091 5.47488 -0.417314 1.47409e-09 -3.04315e-09 1.34809e-09 -2.90554 0.965183 -0.102902 1.47408e-09 -3.04315e-09 1.34809e-09 -10.2786 0.731801 -0.0259123 1.47409e-09 -3.04315e-09 1.34809e-09 -2.22167 -0.733487 0.20892 -2.03217e-16 0.0 -3.88251e-19 7.71019 -15.0666 1.48101 -0.0785303 16.6438 0.245948 -2.62597 -4.90321 -12.8814 2.03217e-16 0.0 3.88251e-19 6.11538 -15.9986 -1.42421 0.0369238 18.9705 -0.272547 1.68406 -7.85645 6.08122
228.642 83.3116 27.6359 -121.759 -83.7402 131.042 8.29249 -6.50056 -3.15603 1.08927 0.573546 -1.14866 -13.7627 5.5708 -10.8678 12.5622 -11.6319 -17.7753 -0.0 0.0 0.0 -0.0 0.0 0.0 2.03425e-13 -4.56221e-13 -2.64255e-13 76.3905 11.6209 9.73675 -11.7979 -5.25638 21.2748 -0.464925 -18.8105 -2.74626 -3.12982e-09 3.84293e-09 -3.78879e-09 -5.35862e-09 6.67843e-09 -6.58719e-09 -3.12982e-09 3.84293e-09 -3.78881e-09 7.73091 5.47488 0.417314 -3.12982e-09 3.84294e-09 -3.78878e-09 2.90554 0.965183 0.102902 -3.12981e-09 3.84293e-09 -3.78878e-09 10.2786 0.731801 0.0259123 -3.12982e-09 3.84294e-09 -3.78877e-09 2.22167 -0.733487 -0.20892 2.03433e-13 -4.56236e-13 -2.64447e-13 -85.3514 -1.68134 2.85306 14.9746 -7.6797 -27.6479 0.135595 -10.3262 1.46771 1.43597e-09 -4.36902e-09 1.08784e-09 2.48904e-09 -7.56309e-09 1.88212e-09 1.43597e-09 -4.36902e-09 1.08785e-09 -7.73091 5.47488 -0.417314 1.43597e-09 -4.36902e-09 1.08784e-09 -2.90554 0.965183 -0.102902 1.43596e-09 -4.36902e-09 1.08784e-09 -10.2786 0.731801 -0.0259123 1.43597e-09 -4.36901e-09 1.08783e-09 -2.22167 -0.733487 0.20892 -2.03217e-16 0.0 -3.88251e-19 7.43183 -14.5316 1.42711 -0.0716569 15.8994 0.231911 -2.47204 -4.60493 -12.3576 2.03217e-16 0.0 3.88251e-19 5.86318 -15.4837 -1.4285 0.0319493 18.2366 -0.259073 1.61283 -7.47716 5.9266
228.629 83.3142 27.6198 -121.66 -83.7397 130.948 8.1084 -6.46331 -3.0417 0.960141 0.714729 -1.11319 -13.459 5.11753 -10.5828 12.5325 -11.1847 -17.2205 -0.0 0.0 0.0 -0.0 0.0 0.0 2.36908e-13 -5.28559e-13 -3.08414e-13 74.7465 11.3542 9.58507 -11.5708 -5.15223 20.7823 -0.419702 -18.1056 -2.63373 -3.33909e-09 4.14746e-09 -4.1102e-09 -5.7163e-09 7.2069e-09 -7.14429e-09 -3.33909e-09 4.14747e-09 -4.11022e-09 7.73091 5.47488 0.417314 -3.33909e-09 4.14748e-09 -4.11019e-09 2.90554 0.965183 0.102902 -3.33908e-09 4.14746e-09 -4.11019e-09 10.2786 0.731801 0.0259123 -3.33909e-09 4.14748e-09 -4.11018e-09 2.22167 -0.733487 -0.20892 2.3696e-13 -5.28577e-13 -3.08564e-13 -83.3329 -1.76387 2.61638 14.6798 -7.51626 -26.9322 0.129579 -10.2098 1.45043 1.5625e-09 -4.71069e-09 1.16663e-09 2.70813e-09 -8.15427e-09 2.01839e-09 1.5625e-09 -4.71069e-09 1.16664e-09 -7.73091 5.47488 -0.417314 1.56251e-09 -4.71069e-09 1.16663e-09 -2.90554 0.965183 -0.102902 1.5625e-09 -4.71069e-09 1.16663e-09 -10.2786 0.731801 -0.0259123 1.56251e-09 -4.71069e-09 1.16662e-09 -2.22167 -0.733487 0.20892 -2.03217e-16 0.0 -3.88251e-19 7.27647 -14.1917 1.40828 -0.0675077 15.4221 0.223088 -2.38173 -4.42368 -12.0414 2.03217e-16 0.0 3.88251e-19 5.71362 -15.1465 -1.45613 0.0289266 17.7495 -0.250382 1.57414 -7.24672 5.85482
